<svg xmlns="http://www.w3.org/2000/svg" xmlns:xlink="http://www.w3.org/1999/xlink" width="500" zoomAndPan="magnify" viewBox="0 0 375 374.999991" height="500" preserveAspectRatio="xMidYMid meet" version="1.0"><defs><clipPath id="1ab5f40543"><path d="M 0 0 L 374.996094 0 L 374.996094 374.855469 L 0 374.855469 Z M 0 0 " clip-rule="nonzero"/></clipPath></defs><g clip-path="url(#1ab5f40543)"><path fill="#1970e0" d="M -41.328125 371.753906 C -41.328125 316.246094 -31.359375 275.574219 -10.871094 247.425781 C 7.308594 222.441406 32.050781 209.246094 56.003906 196.539062 C 89.136719 178.910156 123.363281 160.734375 141.117188 111.671875 C 155.28125 72.398438 182.882812 39.203125 220.941406 15.613281 C 240.882812 3.273438 263.4375 -6.273438 288.058594 -12.777344 C 313.957031 -19.648438 342.167969 -23.113281 371.957031 -23.113281 C 373.65625 -23.113281 374.996094 -24.449219 374.996094 -26.152344 C 374.996094 -27.855469 373.65625 -29.191406 371.957031 -29.191406 L 10.894531 -29.191406 C -21.207031 -29.191406 -47.347656 -3.050781 -47.347656 29.050781 L -47.347656 371.753906 C -47.347656 373.453125 -46.011719 374.792969 -44.308594 374.792969 C -42.605469 374.792969 -41.328125 373.453125 -41.328125 371.753906 Z M -41.328125 371.753906 " fill-opacity="1" fill-rule="nonzero"/></g></svg>