<svg xmlns="http://www.w3.org/2000/svg" xmlns:xlink="http://www.w3.org/1999/xlink" width="500" zoomAndPan="magnify" viewBox="0 0 375 374.999991" height="500" preserveAspectRatio="xMidYMid meet" version="1.0"><defs><filter x="0%" y="0%" width="100%" height="100%" id="15d016ebdc"><feColorMatrix values="0 0 0 0 1 0 0 0 0 1 0 0 0 0 1 0 0 0 1 0" color-interpolation-filters="sRGB"/></filter><mask id="d0c584c17b"><g filter="url(#15d016ebdc)"><rect x="-37.5" width="450" fill="#000000" y="-37.499999" height="449.999989" fill-opacity="0.3"/></g></mask><clipPath id="343c78c3ed"><path d="M 0.25 0 L 283 0 L 283 375 L 0.25 375 Z M 0.25 0 " clip-rule="nonzero"/></clipPath><clipPath id="d6bf1d7213"><rect x="0" width="283" y="0" height="375"/></clipPath></defs><g mask="url(#d0c584c17b)"><g transform="matrix(1, 0, 0, 1, 92, 0)"><g clip-path="url(#d6bf1d7213)"><g clip-path="url(#343c78c3ed)"><path fill="#1970e0" d="M 267.613281 374.964844 C 272.765625 374.984375 277.917969 374.53125 283 373.65625 L 283 0.0195312 L 0.339844 0.0195312 C 4.597656 1.53125 8.816406 3.140625 12.917969 5.039062 C 23.105469 9.753906 32.777344 16.492188 38.488281 26.15625 C 42.640625 33.183594 44.476562 41.386719 44.964844 49.535156 C 45.453125 57.683594 44.652344 65.851562 43.867188 73.976562 C 43.078125 82.101562 42.300781 90.269531 42.824219 98.414062 C 43.351562 106.5625 45.246094 114.753906 49.464844 121.746094 C 54.160156 129.519531 61.527344 135.429688 69.609375 139.578125 C 77.6875 143.730469 86.507812 146.234375 95.34375 148.335938 C 104.183594 150.4375 113.125 152.171875 121.789062 154.902344 C 130.453125 157.632812 138.910156 161.421875 145.917969 167.203125 C 153.789062 173.691406 159.558594 182.5 163.339844 191.972656 C 167.121094 201.445312 168.996094 211.589844 169.90625 221.75 C 171.726562 242.070312 169.78125 262.660156 172.648438 282.859375 C 175.640625 303.929688 184.03125 324.375 197.671875 340.707031 C 211.3125 357.042969 230.300781 369.089844 251.160156 373.296875 C 256.574219 374.390625 262.09375 374.9375 267.613281 374.964844 Z M 267.613281 374.964844 " fill-opacity="1" fill-rule="nonzero"/></g></g></g></g></svg>