<svg xmlns="http://www.w3.org/2000/svg" xmlns:xlink="http://www.w3.org/1999/xlink" width="500" zoomAndPan="magnify" viewBox="0 0 375 374.999991" height="500" preserveAspectRatio="xMidYMid meet" version="1.0"><defs><clipPath id="7c64371ad7"><path d="M 92.25 0 L 375 0 L 375 375 L 92.25 375 Z M 92.25 0 " clip-rule="nonzero"/></clipPath></defs><g clip-path="url(#7c64371ad7)"><path fill="#1970e0" d="M 359.613281 374.964844 C 364.765625 374.984375 369.917969 374.53125 375 373.65625 L 375 0.0195312 L 92.339844 0.0195312 C 96.597656 1.53125 100.816406 3.140625 104.917969 5.039062 C 115.105469 9.753906 124.777344 16.492188 130.488281 26.15625 C 134.640625 33.183594 136.476562 41.386719 136.964844 49.535156 C 137.453125 57.683594 136.652344 65.851562 135.867188 73.976562 C 135.078125 82.101562 134.300781 90.269531 134.824219 98.414062 C 135.351562 106.5625 137.246094 114.753906 141.464844 121.746094 C 146.160156 129.519531 153.527344 135.429688 161.609375 139.578125 C 169.6875 143.730469 178.507812 146.234375 187.34375 148.335938 C 196.183594 150.4375 205.125 152.171875 213.789062 154.902344 C 222.453125 157.632812 230.910156 161.421875 237.917969 167.203125 C 245.789062 173.691406 251.558594 182.5 255.339844 191.972656 C 259.121094 201.445312 260.996094 211.589844 261.90625 221.75 C 263.726562 242.070312 261.78125 262.660156 264.648438 282.859375 C 267.640625 303.929688 276.03125 324.375 289.671875 340.707031 C 303.3125 357.042969 322.300781 369.089844 343.160156 373.296875 C 348.574219 374.390625 354.09375 374.9375 359.613281 374.964844 Z M 359.613281 374.964844 " fill-opacity="1" fill-rule="nonzero"/></g></svg>